<?xml version="1.0" standalone="no"?>
<!DOCTYPE svg PUBLIC "-//W3C//DTD SVG 20010904//EN"
 "http://www.w3.org/TR/2001/REC-SVG-20010904/DTD/svg10.dtd">
<svg version="1.0" xmlns="http://www.w3.org/2000/svg"
 width="249.000000pt" height="73.000000pt" viewBox="0 0 249.000000 73.000000"
 preserveAspectRatio="xMidYMid meet">

<g transform="translate(0.000000,73.000000) scale(0.100000,-0.100000)"
fill="#000000" stroke="none">
<path d="M1 618 c1 -92 3 -106 10 -74 5 22 18 54 30 72 25 41 101 92 148 99
20 4 43 8 51 10 8 1 -42 3 -112 4 l-128 1 1 -112z"/>
<path d="M391 720 c91 -16 170 -64 190 -117 20 -53 2 -137 -34 -160 -9 -6 -7
-13 10 -30 l23 -22 0 23 c0 38 28 107 65 162 43 62 109 111 184 135 l56 18
-270 -1 c-165 0 -252 -3 -224 -8z"/>
<path d="M1045 716 c98 -31 181 -98 223 -181 l21 -40 1 60 c0 41 6 70 20 92
35 58 56 63 288 63 195 0 211 -1 235 -20 l26 -20 33 20 c31 18 50 20 264 20
224 0 232 -1 265 -23 22 -14 39 -37 47 -62 25 -77 6 -116 -135 -273 l-63 -69
71 -5 c82 -6 118 -27 136 -79 10 -28 12 17 12 249 l1 282 -742 -1 c-615 0
-736 -3 -703 -13z"/>
<path d="M227 660 c-89 -15 -151 -74 -157 -150 -6 -71 0 -93 38 -130 30 -31
55 -43 127 -64 125 -37 140 -45 140 -81 0 -26 -5 -31 -36 -39 -49 -12 -77 -3
-126 39 -68 58 -143 42 -143 -32 0 -39 31 -78 83 -105 52 -27 195 -37 261 -18
133 37 189 193 103 283 -33 35 -67 50 -194 87 -80 22 -102 44 -79 76 23 31 86
25 141 -14 27 -19 58 -32 75 -32 55 0 87 59 60 111 -16 29 -81 58 -157 69 -76
11 -70 11 -136 0z"/>
<path d="M1375 625 l-25 -24 0 -234 c0 -216 2 -237 19 -258 19 -24 23 -24 216
-27 166 -3 200 -1 221 13 28 18 32 60 10 91 -13 17 -29 19 -150 22 l-136 4 0
49 0 49 108 0 c119 0 142 10 142 62 0 48 -31 62 -146 66 l-104 4 0 38 0 38
128 3 c144 4 162 12 162 64 0 61 -14 65 -229 65 -190 0 -192 0 -216 -25z"/>
<path d="M1922 634 c-29 -20 -30 -74 -1 -100 16 -15 42 -19 132 -24 l111 -5
-128 -140 c-133 -146 -161 -188 -150 -230 13 -51 30 -55 269 -55 253 0 265 3
265 69 0 59 -15 65 -160 71 l-128 5 139 153 c79 88 140 163 141 175 2 40 -2
61 -19 79 -15 16 -37 18 -232 18 -180 0 -220 -3 -239 -16z"/>
<path d="M1827 484 c-27 -15 -28 -16 -12 -34 28 -31 31 -103 6 -146 -12 -20
-21 -37 -19 -38 2 0 12 -6 23 -12 18 -10 30 0 105 85 47 52 86 98 88 102 1 3
-21 9 -50 12 -29 4 -65 16 -80 27 -32 23 -26 23 -61 4z"/>
<path d="M1 233 l-1 -233 148 1 c108 1 132 4 92 9 -30 4 -77 17 -105 29 -89
39 -125 88 -125 170 0 42 5 56 29 83 l29 32 -24 31 c-13 17 -28 49 -33 71 -6
28 -9 -28 -10 -193z"/>
<path d="M1270 200 c-32 -77 -126 -155 -225 -186 -33 -10 88 -13 703 -13 l742
-1 -1 68 c0 65 -1 66 -12 32 -7 -19 -27 -44 -46 -57 -33 -22 -41 -23 -268 -23
-184 0 -241 3 -269 15 -32 13 -39 13 -64 0 -43 -22 -418 -22 -465 1 -49 23
-69 59 -75 134 l-5 65 -15 -35z"/>
<path d="M602 167 c-29 -81 -112 -141 -219 -156 -40 -6 28 -9 222 -9 154 0
271 2 260 5 -84 19 -179 81 -223 147 l-29 44 -11 -31z"/>
</g>
</svg>
